<?xml version="1.0" standalone="no"?><!-- Generator: Gravit.io --><svg xmlns="http://www.w3.org/2000/svg" xmlns:xlink="http://www.w3.org/1999/xlink" style="isolation:isolate" viewBox="0 0 400 400" width="400px" height="400px"><defs><clipPath id="_clipPath_fkDmjCTPw9iWmDyyyHJPTfVKgJW078Ty"><rect width="400" height="400"/></clipPath></defs><g clip-path="url(#_clipPath_fkDmjCTPw9iWmDyyyHJPTfVKgJW078Ty)"><g style="opacity:0.14;"><g style="isolation:isolate"><g style="isolation:isolate"><path d=" M 122.903 57.668 C 123.317 57.281 124.143 57.296 124.746 57.702 C 125.348 58.108 125.502 58.752 125.087 59.139 C 124.673 59.526 123.848 59.511 123.245 59.105 C 122.642 58.699 122.489 58.056 122.903 57.668 Z " fill="rgb(235,235,235)"/><path d=" M 225.1 271.244 C 225.514 270.856 226.34 270.871 226.943 271.277 C 227.546 271.683 227.699 272.327 227.285 272.714 C 226.871 273.101 226.045 273.086 225.442 272.68 C 224.839 272.275 224.686 271.631 225.1 271.244 Z " fill="rgb(235,235,235)"/><ellipse vector-effect="non-scaling-stroke" cx="48.28375739442401" cy="13.163785588948866" rx="0.5962387109509208" ry="1.1637855889488833" fill="rgb(235,235,235)"/><ellipse vector-effect="non-scaling-stroke" cx="153.22177052178625" cy="152.81805626281485" rx="0.596238710950928" ry="1.1637855889488833" fill="rgb(235,235,235)"/><path d=" M 268.385 118.185 C 268.799 117.798 269.625 117.813 270.228 118.219 C 270.831 118.625 270.984 119.268 270.57 119.656 C 270.156 120.043 269.33 120.028 268.727 119.622 C 268.124 119.216 267.971 118.573 268.385 118.185 Z " fill="rgb(235,235,235)"/><path d=" M 370.582 331.76 C 370.997 331.373 371.822 331.388 372.425 331.794 C 373.028 332.2 373.181 332.843 372.767 333.231 C 372.353 333.618 371.527 333.603 370.924 333.197 C 370.321 332.791 370.168 332.148 370.582 331.76 Z " fill="rgb(235,235,235)"/><ellipse vector-effect="non-scaling-stroke" cx="193.76600286644887" cy="73.68063621429076" rx="0.596238710950928" ry="1.1637855889488833" fill="rgb(235,235,235)"/><ellipse vector-effect="non-scaling-stroke" cx="298.70401599381097" cy="213.33490688815684" rx="0.5962387109508995" ry="1.1637855889488833" fill="rgb(235,235,235)"/></g><g style="isolation:isolate"><path d=" M 99.632 117.632 C 100.046 117.261 100.871 117.276 101.474 117.664 C 102.077 118.053 102.23 118.67 101.816 119.041 C 101.402 119.412 100.576 119.398 99.973 119.009 C 99.371 118.62 99.217 118.003 99.632 117.632 Z " fill="rgb(235,235,235)"/><path d=" M 201.829 322.322 C 202.243 321.951 203.069 321.966 203.672 322.355 C 204.275 322.743 204.428 323.36 204.014 323.732 C 203.599 324.103 202.774 324.088 202.171 323.699 C 201.568 323.31 201.415 322.693 201.829 322.322 Z " fill="rgb(235,235,235)"/><ellipse vector-effect="non-scaling-stroke" cx="25.01255124733024" cy="74.97899440031163" rx="0.5962387109509208" ry="1.1153711018425696" fill="rgb(235,235,235)"/><ellipse vector-effect="non-scaling-stroke" cx="129.9505643746925" cy="208.82352662142011" rx="0.596238710950928" ry="1.1153711018425838" fill="rgb(235,235,235)"/><path d=" M 245.114 175.632 C 245.528 175.26 246.354 175.275 246.957 175.664 C 247.56 176.053 247.713 176.67 247.299 177.041 C 246.884 177.412 246.059 177.397 245.456 177.009 C 244.853 176.62 244.7 176.003 245.114 175.632 Z " fill="rgb(235,235,235)"/><path d=" M 347.311 380.322 C 347.725 379.951 348.551 379.965 349.154 380.354 C 349.757 380.743 349.91 381.36 349.496 381.731 C 349.082 382.102 348.256 382.088 347.653 381.699 C 347.05 381.31 346.897 380.693 347.311 380.322 Z " fill="rgb(235,235,235)"/><ellipse vector-effect="non-scaling-stroke" cx="170.49479671935512" cy="132.9782916961253" rx="0.596238710950928" ry="1.1153711018425838" fill="rgb(235,235,235)"/><ellipse vector-effect="non-scaling-stroke" cx="275.4328098467175" cy="266.82282391723385" rx="0.5962387109508995" ry="1.1153711018425838" fill="rgb(235,235,235)"/></g></g></g></g></svg>